<?xml version="1.0"?>
<svg
  xmlns="http://www.w3.org/2000/svg"
  width="512" height="512"
  viewBox="0 0 512 512"
  fill="none"
>
  <defs>
    <!-- Rainbow colors to cycle through ROYGBIV -->
    <style>
      .gray { fill: #888888; rx: 2; }
    </style>
  </defs>

  <!-- Background -->
  <rect x="24" y="24" width="464" height="464" rx="48" ry="48" fill="#222" />

  <!-- FFT Bars -->
  <g>
    <!-- Bar parameters -->
    <!-- base line at y=400 -->
    <!-- columns: 32 -->
    <!-- column width: 12 -->
    <!-- column spacing: 14 -->
    <!-- x start: 32 -->

    <!-- Heights approximate FFT-like pattern -->
    <!-- Gray bars outside min/max -->
    <!-- Colored bars inside min/max -->

    <!-- Columns 0-1: gray -->
    <rect x="32"  y="375" width="12" height="25" class="gray"/>
    <rect x="46"  y="355" width="12" height="45" class="gray"/>

    <!-- Columns 2-25: rainbow -->
    <!-- We'll map 24 columns across ROYGBIV -->
    <!-- Color array for 7 colors: -->
    <!-- R: #FF0000, O: #FF7F00, Y: #FFFF00, G: #00FF00, B: #0000FF, I: #4B0082, V: #8B00FF -->

    <!-- Calculate the color for each column by interpolation -->

    <!-- I’ll hardcode the color stops per column for clarity -->

    <rect x="60"  y="340" width="12" height="60" fill="#FF0000" rx="2"/>   <!-- R -->
    <rect x="74"  y="330" width="12" height="70" fill="#FF4000" rx="2"/>   <!-- between R and O -->
    <rect x="88"  y="325" width="12" height="75" fill="#FF7F00" rx="2"/>   <!-- O -->
    <rect x="102" y="310" width="12" height="90" fill="#FFAA00" rx="2"/>   <!-- between O and Y -->
    <rect x="116" y="285" width="12" height="115" fill="#FFFF00" rx="2"/>  <!-- Y -->
    <rect x="130" y="270" width="12" height="130" fill="#BFFF00" rx="2"/>  <!-- between Y and G -->
    <rect x="144" y="250" width="12" height="150" fill="#00FF00" rx="2"/>  <!-- G -->
    <rect x="158" y="235" width="12" height="165" fill="#00AAFF" rx="2"/>  <!-- between G and B -->
    <rect x="172" y="220" width="12" height="180" fill="#0000FF" rx="2"/>  <!-- B -->
    <rect x="186" y="205" width="12" height="195" fill="#4B0082" rx="2"/>  <!-- I -->
    <rect x="200" y="190" width="12" height="210" fill="#551A8B" rx="2"/>  <!-- between I and V -->
    <rect x="214" y="200" width="12" height="200" fill="#8B00FF" rx="2"/>  <!-- V -->
    <rect x="228" y="215" width="12" height="185" fill="#AA00FF" rx="2"/>  <!-- V+ -->
    <rect x="242" y="225" width="12" height="175" fill="#B000FF" rx="2"/>
    <rect x="256" y="230" width="12" height="170" fill="#C000FF" rx="2"/>
    <rect x="270" y="245" width="12" height="155" fill="#D000FF" rx="2"/>
    <rect x="284" y="260" width="12" height="140" fill="#E000FF" rx="2"/>
    <rect x="298" y="280" width="12" height="120" fill="#F000FF" rx="2"/>
    <rect x="312" y="300" width="12" height="100" fill="#FF00FF" rx="2"/>
    <rect x="326" y="320" width="12" height="80"  fill="#FF00D0" rx="2"/>
    <rect x="340" y="335" width="12" height="65"  fill="#FF00B0" rx="2"/>
    <rect x="354" y="350" width="12" height="50"  fill="#FF0080" rx="2"/>
    <rect x="368" y="360" width="12" height="40"  fill="#FF0040" rx="2"/>

    <!-- Columns 26-31: gray -->
    <rect x="382" y="370" width="12" height="30" class="gray" rx="2"/>
    <rect x="396" y="380" width="12" height="20" class="gray" rx="2"/>
    <rect x="410" y="390" width="12" height="10" class="gray" rx="2"/>
    <rect x="424" y="395" width="12" height="5"  class="gray" rx="2"/>
    <rect x="438" y="400" width="12" height="0"  class="gray" rx="2"/>
    <rect x="452" y="400" width="12" height="0"  class="gray" rx="2"/>
  </g>

  <!-- Axis Line -->
  <line x1="24" y1="400" x2="488" y2="400" stroke="#555" stroke-width="6" />

  <!-- Tick Marks -->
  <g stroke="#000" stroke-width="3">
    <line x1="38"  y1="400" x2="38"  y2="410"/>
    <line x1="52"  y1="400" x2="52"  y2="410"/>
    <line x1="66"  y1="400" x2="66"  y2="410"/>
    <line x1="80"  y1="400" x2="80"  y2="410"/>
    <line x1="94"  y1="400" x2="94"  y2="410"/>
    <line x1="108" y1="400" x2="108" y2="410"/>
    <line x1="122" y1="400" x2="122" y2="410"/>
    <line x1="136" y1="400" x2="136"  y2="410"/>
    <line x1="150" y1="400" x2="150"  y2="410"/>
    <line x1="164" y1="400" x2="164"  y2="410"/>
    <line x1="178" y1="400" x2="178"  y2="410"/>
    <line x1="192" y1="400" x2="192"  y2="410"/>
    <line x1="206" y1="400" x2="206"  y2="410"/>
    <line x1="220" y1="400" x2="220"  y2="410"/>
    <line x1="234" y1="400" x2="234"  y2="410"/>
    <line x1="248" y1="400" x2="248"  y2="410"/>
    <line x1="262" y1="400" x2="262"  y2="410"/>
    <line x1="276" y1="400" x2="276"  y2="410"/>
    <line x1="290" y1="400" x2="290"  y2="410"/>
    <line x1="304" y1="400" x2="304"  y2="410"/>
    <line x1="318" y1="400" x2="318"  y2="410"/>
    <line x1="332" y1="400" x2="332"  y2="410"/>
    <line x1="346" y1="400" x2="346"  y2="410"/>
    <line x1="360" y1="400" x2="360"  y2="410"/>
    <line x1="374" y1="400" x2="374"  y2="410"/>
    <line x1="388" y1="400" x2="388"  y2="410"/>
    <line x1="402" y1="400" x2="402"  y2="410"/>
    <line x1="416" y1="400" x2="416"  y2="410"/>
    <line x1="430" y1="400" x2="430"  y2="410"/>
    <line x1="444" y1="400" x2="444"  y2="410"/>
    <line x1="458" y1="400" x2="458"  y2="410"/>
    <line x1="472" y1="400" x2="472"  y2="410"/>
  </g>

  <!-- Min Frequency Line -->
  <line x1="59" y1="72" x2="59" y2="440" stroke="#FF0000" stroke-width="8" stroke-dasharray="12 8" />

  <!-- Max Frequency Line -->
  <line x1="381" y1="72" x2="381" y2="440" stroke="#FF0000" stroke-width="8" stroke-dasharray="12 8" />
</svg>
