<?xml version="1.0"?>
<svg xmlns="http://www.w3.org/2000/svg" width="512" height="512" viewBox="0 0 512 512">

  <!-- Bars Group (shifted down by 40px - 36px = effectively 4px down from original) -->
  <g transform="translate(0, 5)">
    <g>
      <rect x="0" y="426" width="57" height="32" fill="#00FF00"/>
      <rect x="0" y="394" width="57" height="32" fill="#FFFF00"/>
      <rect x="0" y="362" width="57" height="32" fill="#FFA500"/>
      <rect x="0" y="330" width="57" height="32" fill="#FF0000"/>
    </g>
    <g>
      <rect x="65" y="402" width="57" height="38" fill="#00FF00"/>
      <rect x="65" y="364" width="57" height="38" fill="#FFFF00"/>
      <rect x="65" y="326" width="57" height="38" fill="#FFA500"/>
      <rect x="65" y="288" width="57" height="38" fill="#FF0000"/>
    </g>
    <g>
      <rect x="130" y="378" width="57" height="44" fill="#00FF00"/>
      <rect x="130" y="334" width="57" height="44" fill="#FFFF00"/>
      <rect x="130" y="290" width="57" height="44" fill="#FFA500"/>
      <rect x="130" y="246" width="57" height="44" fill="#FF0000"/>
    </g>
    <g>
      <rect x="195" y="354" width="57" height="50" fill="#00FF00"/>
      <rect x="195" y="304" width="57" height="50" fill="#FFFF00"/>
      <rect x="195" y="254" width="57" height="50" fill="#FFA500"/>
      <rect x="195" y="204" width="57" height="50" fill="#FF0000"/>
    </g>
    <g>
      <rect x="260" y="330" width="57" height="56" fill="#00FF00"/>
      <rect x="260" y="274" width="57" height="56" fill="#FFFF00"/>
      <rect x="260" y="218" width="57" height="56" fill="#FFA500"/>
      <rect x="260" y="162" width="57" height="56" fill="#FF0000"/>
    </g>
    <g>
      <rect x="325" y="306" width="57" height="62" fill="#00FF00"/>
      <rect x="325" y="244" width="57" height="62" fill="#FFFF00"/>
      <rect x="325" y="182" width="57" height="62" fill="#FFA500"/>
      <rect x="325" y="120" width="57" height="62" fill="#FF0000"/>
    </g>
    <g>
      <rect x="390" y="282" width="57" height="68" fill="#00FF00"/>
      <rect x="390" y="214" width="57" height="68" fill="#FFFF00"/>
      <rect x="390" y="146" width="57" height="68" fill="#FFA500"/>
      <rect x="390" y="78" width="57" height="68" fill="#FF0000"/>
    </g>
    <g>
      <rect x="455" y="258" width="57" height="74" fill="#00FF00"/>
      <rect x="455" y="184" width="57" height="74" fill="#FFFF00"/>
      <rect x="455" y="110" width="57" height="74" fill="#FFA500"/>
      <rect x="455" y="36" width="57" height="74" fill="#FF0000"/>
    </g>
  </g>

  <!-- Microphone shifted down by 40px and then up by 36px → net 4px down -->
  <g transform="translate(0, 20)">
    <line x1="256" y1="316" x2="256" y2="380" stroke="#666" stroke-width="10"/>
    <circle cx="256" cy="400" r="24" fill="#444"/>
    <rect x="186" y="50" width="140" height="220" rx="70" fill="#555" stroke="#333" stroke-width="10"/>
    <rect x="216" y="80" width="80" height="160" rx="40" fill="#999" stroke="#666" stroke-width="6"/>
    <rect x="166" y="280" width="180" height="36" rx="18" fill="#777" stroke="#444" stroke-width="8"/>
  </g>

</svg>
